<svg xmlns="http://www.w3.org/2000/svg" viewBox="0 0 800 1000" width="100%" height="100%">
  <rect width="100%" height="100%" fill="#050507"/>
  <defs>
    <linearGradient id="neon-glow" x1="0" y1="1" x2="0" y2="0">
      <stop offset="0%" stop-color="#76ff03" stop-opacity="0.35"/>
      <stop offset="100%" stop-color="#76ff03" stop-opacity="0"/>
    </linearGradient>
  </defs>
  
  <!-- Perspective street guidelines -->
  <path d="M 400,250 L 0,1000 M 400,250 L 800,1000 M 400,250 L 400,1000" fill="none" stroke="#76ff03" stroke-width="1.5" stroke-opacity="0.2"/>
  <polygon points="0,750 800,750 800,1000 0,1000" fill="url(#neon-glow)"/>
  
  <!-- Newlyweds holding hands silhouette (walking away) -->
  <g transform="translate(345, 520)" fill="none" stroke="#76ff03">
    <!-- Groom (left) -->
    <circle cx="35" cy="50" r="10" stroke-width="2" stroke-opacity="0.8"/>
    <path d="M 35,60 L 35,140 M 35,70 L 15,105 M 35,70 L 50,95 M 35,140 L 20,210 M 35,140 L 48,210" stroke-width="2" stroke-opacity="0.8"/>
    
    <!-- Bride (right) -->
    <circle cx="85" cy="55" r="9" stroke-width="2" stroke-opacity="0.8"/>
    <path d="M 85,64 L 85,95 M 85,73 L 70,95 M 85,73 L 105,105 M 85,95 L 60,210 H 115 Z" fill="#76ff03" fill-opacity="0.1" stroke-width="2" stroke-opacity="0.8"/>
    
    <!-- Holding hands link -->
    <path d="M 50,95 Q 60,100 70,95" stroke="#fff" stroke-width="1.5" stroke-opacity="0.9"/>
  </g>
  
  <!-- City building neon lights and rain -->
  <rect x="20" y="100" width="100" height="400" fill="none" stroke="#76ff03" stroke-width="1.5" stroke-opacity="0.4"/>
  <text x="70" y="130" fill="#76ff03" font-family="monospace" font-size="10" text-anchor="middle" letter-spacing="2" opacity="0.6">LOVE</text>
  
  <!-- Rain lines -->
  <g stroke="#76ff03" stroke-width="1" stroke-opacity="0.3">
    <line x1="150" y1="50" x2="130" y2="130"/>
    <line x1="280" y1="100" x2="260" y2="180"/>
    <line x1="520" y1="150" x2="500" y2="230"/>
    <line x1="650" y1="80" x2="630" y2="160"/>
    <line x1="200" y1="400" x2="180" y2="480"/>
    <line x1="600" y1="420" x2="580" y2="500"/>
  </g>
  
  <text x="50" y="950" fill="#76ff03" font-family="'Cormorant Garamond', serif" font-style="italic" font-size="20" letter-spacing="1" opacity="0.7">[TOKYO VOWS IN RAIN]</text>
  <text x="750" y="950" fill="#76ff03" font-family="monospace" font-size="12" text-anchor="end" opacity="0.6">35MM F1.4</text>
</svg>