<svg xmlns="http://www.w3.org/2000/svg" viewBox="0 0 800 1000" width="100%" height="100%">
  <rect width="100%" height="100%" fill="#070807"/>
  <defs>
    <radialGradient id="altar-glow" cx="50%" cy="70%" r="45%">
      <stop offset="0%" stop-color="#76ff03" stop-opacity="0.25"/>
      <stop offset="100%" stop-color="#000" stop-opacity="0"/>
    </radialGradient>
  </defs>
  
  <circle cx="400" cy="700" r="300" fill="url(#altar-glow)"/>
  
  <!-- Forest trees arching over -->
  <g fill="none" stroke="#76ff03" stroke-width="2" stroke-opacity="0.3">
    <path d="M 0,1000 Q 150,500 300,300 Q 400,200 400,0"/>
    <path d="M 800,1000 Q 650,500 500,300 Q 400,200 400,0"/>
  </g>
  
  <!-- Glowing Hexagonal Wedding Altar -->
  <polygon points="400,500 480,550 480,650 400,700 320,650 320,550" fill="none" stroke="#76ff03" stroke-width="4" stroke-opacity="0.8"/>
  <polygon points="400,500 480,550 480,650 400,700 320,650 320,550" fill="#76ff03" fill-opacity="0.08"/>
  
  <!-- Bioluminescent dots hanging like fairy lights -->
  <g fill="#76ff03">
    <circle cx="320" cy="300" r="4" opacity="0.6"/>
    <circle cx="360" cy="270" r="5" opacity="0.8"/>
    <circle cx="400" cy="250" r="3" opacity="0.5"/>
    <circle cx="440" cy="270" r="5" opacity="0.8"/>
    <circle cx="480" cy="300" r="4" opacity="0.6"/>
    
    <!-- Firefly dots around altar -->
    <circle cx="280" cy="580" r="5" opacity="0.9"/>
    <circle cx="520" cy="580" r="4" opacity="0.8"/>
    <circle cx="400" cy="760" r="6" opacity="0.9"/>
  </g>
  
  <text x="50" y="950" fill="#76ff03" font-family="'Cormorant Garamond', serif" font-style="italic" font-size="20" letter-spacing="1" opacity="0.7">[THE LUMINESCENT COVEN]</text>
  <text x="750" y="950" fill="#76ff03" font-family="monospace" font-size="12" text-anchor="end" opacity="0.6">ISO 800</text>
</svg>