<svg xmlns="http://www.w3.org/2000/svg" viewBox="0 0 800 1000" width="100%" height="100%">
  <rect width="100%" height="100%" fill="#050505"/>
  <defs>
    <radialGradient id="ring-glow" cx="50%" cy="50%" r="50%">
      <stop offset="0%" stop-color="#76ff03" stop-opacity="0.15"/>
      <stop offset="100%" stop-color="#000" stop-opacity="0"/>
    </radialGradient>
  </defs>
  
  <circle cx="400" cy="500" r="300" fill="url(#ring-glow)"/>
  
  <!-- Two intersecting glowing neon wedding rings -->
  <g fill="none" stroke="#76ff03" stroke-linejoin="round">
    <!-- Ring 1 (tilted left) -->
    <ellipse cx="350" cy="500" rx="140" ry="240" stroke-width="6" stroke-opacity="0.8" transform="rotate(-30, 350, 500)"/>
    <ellipse cx="350" cy="500" rx="125" ry="225" stroke="#fff" stroke-width="1.5" stroke-opacity="0.9" transform="rotate(-30, 350, 500)"/>
    
    <!-- Ring 2 (tilted right) -->
    <ellipse cx="450" cy="500" rx="140" ry="240" stroke-width="6" stroke-opacity="0.5" transform="rotate(30, 450, 500)"/>
    <ellipse cx="450" cy="500" rx="125" ry="225" stroke="#fff" stroke-width="1.5" stroke-opacity="0.7" transform="rotate(30, 450, 500)"/>
  </g>
  
  <!-- Abstract spark trails -->
  <path d="M 100,200 Q 250,500 400,200 Q 550,500 700,200" fill="none" stroke="#76ff03" stroke-width="1" stroke-opacity="0.25"/>
  <path d="M 100,800 Q 250,500 400,800 Q 550,500 700,800" fill="none" stroke="#76ff03" stroke-width="1" stroke-opacity="0.25"/>
  
  <text x="50" y="950" fill="#76ff03" font-family="'Cormorant Garamond', serif" font-style="italic" font-size="20" letter-spacing="1" opacity="0.7">[THE NEON BANDS]</text>
  <text x="750" y="950" fill="#76ff03" font-family="monospace" font-size="12" text-anchor="end" opacity="0.6">FINE-ART</text>
</svg>