<svg xmlns="http://www.w3.org/2000/svg" viewBox="0 0 1200 600" width="100%" height="100%">
  <rect width="100%" height="100%" fill="#0a0a0c"/>
  <defs>
    <linearGradient id="neon-grad" x1="0%" y1="0%" x2="100%" y2="0%">
      <stop offset="0%" stop-color="#76ff03" stop-opacity="0.3"/>
      <stop offset="50%" stop-color="#39ff14" stop-opacity="0.05"/>
      <stop offset="100%" stop-color="#000" stop-opacity="0.8"/>
    </linearGradient>
  </defs>
  
  <rect width="100%" height="100%" fill="url(#neon-grad)"/>
  
  <!-- Minimalist bride & groom holding hands in city outline -->
  <g transform="translate(80, 120)" fill="none" stroke="#76ff03" stroke-width="2.5" stroke-opacity="0.6">
    <!-- Groom -->
    <circle cx="100" cy="80" r="15"/>
    <path d="M 100,95 V 250 M 100,120 L 70,180 M 100,120 L 130,180"/>
    
    <!-- Bride -->
    <circle cx="180" cy="90" r="12"/>
    <path d="M 180,102 V 150 M 180,120 L 150,180 M 180,120 L 210,180 M 180,150 L 140,320 H 220 Z" fill="#76ff03" fill-opacity="0.1"/>
    
    <!-- Joined hands -->
    <path d="M 130,180 Q 140,182 150,180" stroke="#fff"/>
  </g>
  
  <!-- Cinematic Cityscape Grid overlay -->
  <path d="M 0,450 H 1200 M 0,300 H 1200" stroke="#76ff03" stroke-width="0.5" stroke-opacity="0.15"/>
  <path d="M 500,0 L 200,600 M 500,0 L 1000,600" stroke="#76ff03" stroke-width="1.5" stroke-opacity="0.2"/>
  
  <text x="700" y="280" fill="#76ff03" font-family="'Cormorant Garamond', serif" font-style="italic" font-weight="bold" font-size="52" letter-spacing="2">The Neon Vows</text>
  <text x="700" y="340" fill="#fff" font-family="monospace" font-size="14" letter-spacing="4" opacity="0.6">TOKYO CITY LIGHTS // EDITORIAL WEDDING</text>
</svg>