<svg xmlns="http://www.w3.org/2000/svg" viewBox="0 0 1200 600" width="100%" height="100%">
  <rect width="100%" height="100%" fill="#090a09"/>
  <defs>
    <radialGradient id="arch-glow" cx="50%" cy="50%" r="50%">
      <stop offset="0%" stop-color="#76ff03" stop-opacity="0.15"/>
      <stop offset="100%" stop-color="#000" stop-opacity="0"/>
    </radialGradient>
  </defs>
  
  <circle cx="600" cy="300" r="400" fill="url(#arch-glow)"/>
  
  <!-- Brutalist chapel geometry -->
  <g fill="none" stroke="#76ff03" stroke-width="3" stroke-opacity="0.8">
    <path d="M 200,500 L 600,100 L 1000,500" stroke-linejoin="round"/>
    <path d="M 250,500 L 600,160 L 950,500" stroke-opacity="0.5"/>
    <line x1="600" y1="100" x2="600" y2="500" stroke-opacity="0.4" stroke-width="1"/>
  </g>
  
  <!-- Minimalist couple standing inside -->
  <g transform="translate(560, 360)" fill="none" stroke="#76ff03" stroke-width="1.5" stroke-opacity="0.8">
    <!-- Groom -->
    <circle cx="20" cy="30" r="6"/>
    <path d="M 20,36 V 90 M 20,45 L 8,70 M 20,45 L 30,68"/>
    
    <!-- Bride -->
    <circle cx="60" cy="33" r="5"/>
    <path d="M 60,38 V 60 M 60,45 L 48,70 M 60,45 L 72,70 M 60,60 L 40,110 H 80 Z" fill="#76ff03" fill-opacity="0.1"/>
  </g>
  
  <text x="600" y="540" fill="#76ff03" font-family="'Cormorant Garamond', serif" font-style="italic" font-weight="bold" font-size="36" letter-spacing="8" text-anchor="middle">BRUTALIST ROMANCE</text>
  <text x="600" y="575" fill="#fff" font-family="monospace" font-size="11" letter-spacing="4" text-anchor="middle" opacity="0.5">CONCRETE SANCTUARY VOWS</text>
</svg>